<svg width="64" height="64" xmlns="http://www.w3.org/2000/svg">

 <g>
  <title>background</title>
  <rect fill="none" id="canvas_background" height="402" width="582" y="-1" x="-1"/>
 </g>
 <g>
  <title>Layer 1</title>
  <circle stroke="null" id="svg_1" r="31.903265" fill="#cf9244" cy="32" cx="31.80653"/>
  <path id="svg_2" opacity="0.2" fill="#231F20" d="m24.56,41.938c0.357,1.105 -0.249,2 -1.353,2l-2,0c-1.105,0 -2.29,-0.895 -2.647,-2l-3.233,-10c-0.357,-1.105 0.249,-2 1.353,-2l2,0c1.105,0 2.289,0.895 2.647,2l3.233,10z"/>
  <path id="svg_3" opacity="0.2" fill="#231F20" d="m24.034,46.938c0.357,1.105 -0.249,2 -1.353,2l-2,0c-1.104,0 -2.011,-0.145 -2.368,-1.25l-3.511,-10.75c-0.357,-1.105 0.249,-2 1.353,-2l2,0c1.105,0 2.29,0.895 2.647,2l3.232,10z"/>
  <path id="svg_4" fill="#C75C5C" d="m24.56,39.938c0.357,1.105 -0.249,2 -1.353,2l-2,0c-1.105,0 -2.29,-0.895 -2.647,-2l-3.233,-10c-0.357,-1.105 0.249,-2 1.353,-2l2,0c1.105,0 2.289,0.895 2.647,2l3.233,10z"/>
  <path id="svg_5" fill="#4F5D73" d="m24.034,44.938c0.357,1.105 -0.249,2 -1.353,2l-2,0c-1.104,0 -2.198,-0.52 -2.556,-1.625l-3.324,-10.375c-0.357,-1.105 0.249,-2 1.353,-2l2,0c1.105,0 2.29,0.895 2.647,2l3.233,10z"/>
  <path id="svg_6" opacity="0.2" fill="#231F20" d="m48,28.938l0,-10.438c0,-0.828 -0.672,-1.5 -1.5,-1.5c-0.828,0 -1.5,0.672 -1.5,1.5l0,1.008c-2.76,2.525 -6.282,6.429 -16,6.429l-11,0l-2,0l-2,0c-1.105,0 -2,0.895 -2,2c-1.105,0 -2,0.895 -2,2l0,6c0,1.105 0.895,2 2,2c0,1.105 0.895,2 2,2l1,0l1,0l2,0l11,0c9.718,0 13.24,3.905 16,6.43l0,1.07c0,0.829 0.672,1.5 1.5,1.5c0.828,0 1.5,-0.671 1.5,-1.5l0,-10.5c1.105,0 2,-0.895 2,-2l0,-4c0,-1.104 -0.895,-1.999 -2,-1.999z"/>
  <path id="svg_7" fill="#E0E0D1" d="m50,32.938c0,1.105 -0.895,2 -2,2l-8,0c-1.105,0 -2,-0.895 -2,-2l0,-4c0,-1.105 0.895,-2 2,-2l8,0c1.105,0 2,0.895 2,2l0,4z"/>
  <path id="svg_8" fill="#4F5D73" d="m22,33.938c0,1.105 -0.895,2 -2,2l-8,0c-1.105,0 -2,-0.895 -2,-2l0,-6c0,-1.105 0.895,-2 2,-2l8,0c1.105,0 2,0.895 2,2l0,6z"/>
  <path id="svg_9" fill="#FFFFFF" d="m46.066,16.591c-3.004,2.341 -6.066,7.347 -17.066,7.347l-13,0l-1,14l14,0c11,0 14.062,5.006 17.066,7.347l0,-28.694z"/>
  <path id="svg_10" fill="#C75C5C" d="m18,37.938c0,0 -0.895,0 -2,0l-2,0c-1.105,0 -2,-0.895 -2,-2l0,-10c0,-1.105 0.895,-2 2,-2l2,0c1.105,0 2,0 2,0l0,14z"/>
  <path id="svg_11" fill="#4F5D73" d="m48,45.438c0,0.828 -0.672,1.5 -1.5,1.5l0,0c-0.828,0 -1.5,-0.672 -1.5,-1.5l0,-28.938c0,-0.828 0.672,-1.5 1.5,-1.5l0,0c0.828,0 1.5,0.672 1.5,1.5l0,28.938z"/>
 </g>
</svg>