<svg width="64" height="64" xmlns="http://www.w3.org/2000/svg">

 <g>
  <title>background</title>
  <rect fill="none" id="canvas_background" height="402" width="582" y="-1" x="-1"/>
 </g>
 <g>
  <title>Layer 1</title>
  <circle id="svg_1" r="32" fill="#cf9244" cy="32" cx="32"/>
  <path id="svg_2" opacity="0.2" fill="#231F20" d="m45.293,51.489l5.196,-5.196c0.861,-0.861 0.609,-2.509 -0.562,-3.68l-3.536,-3.535l-0.707,-0.707l-18.86,-18.861l-8.428,-2.886l-4.214,-1.443l1.443,4.214l2.886,8.428l18.86,18.86l0.707,0.707l3.536,3.535c1.17,1.173 2.818,1.425 3.679,0.564z"/>
  <path id="svg_3" fill="#C75C5C" d="m37.37,44.32c-1.172,-1.172 -1.423,-2.819 -0.562,-3.68l5.196,-5.196c0.861,-0.861 2.509,-0.609 3.68,0.562l4.243,4.243c1.171,1.172 1.423,2.819 0.562,3.68l-5.196,5.196c-0.861,0.861 -2.509,0.609 -3.68,-0.562l-4.243,-4.243z"/>
  <rect id="svg_4" y="14.133" x="34.098" width="2.939" transform="matrix(0.7071,-0.7071,0.7071,0.7071,-9.3595,33.3423) " height="27.671" fill="#E0995E"/>
  <rect id="svg_5" y="15.544" x="28.804" width="5.879" transform="matrix(0.7071,-0.7071,0.7071,0.7071,-12.1842,31.3434) " height="29.671" fill="#E0995E"/>
  <rect id="svg_6" y="20.369" x="27.863" width="2.939" transform="matrix(0.7071,-0.7071,0.7071,0.7071,-15.5948,30.7607) " height="27.671" fill="#E0995E"/>
  <polygon id="svg_8" points="14.182,12.818 15.625,17.032 18.396,14.261  " fill="#4F5D73"/>
  <polygon id="svg_9" points="26.824,17.147 18.396,14.261 15.625,17.032 18.51,25.46 19.549,24.421 22.003,24.796    21.253,19.889 26.16,20.639 25.785,18.186  " fill="#F5CF87"/>
  <path id="svg_10" opacity="0.2" fill="#231F20" d="m49.865,16.135c-1.933,-1.933 -13.04,6.04 -19.874,12.874c-3.362,3.362 -5.058,5.819 -5.689,7.682c-2.108,-0.205 -4.403,0.571 -5.914,2.082c-0.968,0.968 -1.498,2.041 -1.894,3.202c-0.761,2.231 -1.494,5.025 -4.494,7.015c2.236,2.236 10.984,2.865 15.227,-1.378c0.449,-0.449 0.831,-0.967 1.144,-1.529c0.74,-1.329 1.068,-2.898 0.925,-4.38c1.864,-0.627 4.325,-2.324 7.695,-5.694c6.834,-6.834 14.807,-17.941 12.874,-19.874z"/>
  <path id="svg_11" fill="#F5CF87" d="m29.991,27.009c-6.834,6.834 -6.807,9.941 -4.874,11.874c1.933,1.933 5.04,1.96 11.874,-4.874c6.834,-6.834 14.807,-17.941 12.874,-19.874c-1.933,-1.933 -13.04,6.04 -19.874,12.874z"/>
  <path id="svg_13" fill="#C75C5C" d="m12,46.99c2.236,2.237 10.984,2.865 15.227,-1.378c0.449,-0.449 0.831,-0.967 1.144,-1.529c-6.637,-0.198 -10.145,-2.408 -11.877,-4.108c-0.761,2.231 -1.494,5.025 -4.494,7.015z"/>
  <path id="svg_14" fill="#4F5D73" d="m27.757,36.243c-2.441,-2.441 -6.928,-1.91 -9.369,0.53c-0.968,0.968 -1.498,2.041 -1.894,3.202c1.732,1.7 5.13,6.942 11.877,4.108c1.39,-2.493 1.378,-5.848 -0.614,-7.84z"/>
  <path id="svg_15" fill="#C75C5C" d="m16.495,39.975c0,0 4.022,-0.764 5.938,2.059c1.917,2.823 5.938,2.049 5.938,2.049l-5.205,2.875l-5.208,-3.792l-1.463,-3.191z"/>
 </g>
</svg>