<svg width="64" height="64" xmlns="http://www.w3.org/2000/svg">

 <g>
  <title>background</title>
  <rect fill="none" id="canvas_background" height="402" width="582" y="-1" x="-1"/>
 </g>
 <g>
  <title>Layer 1</title>
  <circle id="svg_2" r="32" fill="#cf9244" cy="32" cx="32"/>
  <path opacity="0.2" id="svg_5" fill="#231F20" d="m52,44c0,2.209 -1.791,4 -4,4l-32,0c-2.209,0 -4,-1.791 -4,-4l0,-20c0,-2.209 1.791,-4 4,-4l32,0c2.209,0 4,1.791 4,4l0,20z"/>
  <path id="svg_7" fill="#E0E0D1" d="m52,42c0,2.209 -1.791,4 -4,4l-32,0c-2.209,0 -4,-1.791 -4,-4l0,-20c0,-2.209 1.791,-4 4,-4l32,0c2.209,0 4,1.791 4,4l0,20z"/>
  <path opacity="0.2" id="svg_10" fill="#231F20" d="m35.524,30.185c-1.938,-2.146 -5.109,-2.146 -7.047,0l-15.427,13.043c-0.18,0.199 -0.328,0.393 -0.461,0.585c0.701,1.306 1.96,2.187 3.411,2.187l32,0c1.451,0 2.71,-0.881 3.411,-2.187c-0.133,-0.191 -0.281,-0.385 -0.461,-0.585l-15.426,-13.043z"/>
  <path id="svg_13" fill="#E0E0D1" d="m35.524,32c-1.938,-1.9 -5.109,-1.9 -7.047,0l-15.427,11.546c-0.18,0.176 -0.328,0.348 -0.461,0.517c0.701,1.157 1.96,1.937 3.411,1.937l32,0c1.451,0 2.71,-0.78 3.411,-1.936c-0.133,-0.169 -0.281,-0.341 -0.461,-0.517l-15.426,-11.547z"/>
  <path opacity="0.2" id="svg_16" fill="#231F20" d="m12.589,20.187c0.701,-1.306 1.96,-2.187 3.411,-2.187l32,0c1.451,0 2.71,0.881 3.411,2.187c-0.133,0.191 -0.281,0.385 -0.461,0.585l-15.426,13.043c-1.938,2.146 -5.109,2.146 -7.047,0l-15.888,-13.628z"/>
  <path id="svg_19" fill="#FFFFFF" d="m28.476,32c1.938,1.9 5.109,1.9 7.047,0l15.427,-11.546c0.18,-0.176 0.328,-0.348 0.461,-0.517c-0.701,-1.157 -1.96,-1.937 -3.411,-1.937l-32,0c-1.451,0 -2.71,0.78 -3.411,1.936c0.133,0.169 0.281,0.341 0.461,0.517l15.426,11.547z"/>
 </g>
</svg>