<svg width="64" height="64" xmlns="http://www.w3.org/2000/svg">

 <g>
  <title>background</title>
  <rect fill="none" id="canvas_background" height="402" width="582" y="-1" x="-1"/>
 </g>
 <g>
  <title>Layer 1</title>
  <circle id="svg_1" r="32" fill="#cf9244" cy="32" cx="32"/>
  <path opacity="0.2" id="svg_3" fill="#231F20" d="m25,43.338l0,7.895c0,0.481 0.563,1.308 0.98,1.548l5.262,3.038c0.417,0.241 1.099,0.241 1.516,0l5.262,-3.038c0.417,-0.241 0.98,-1.067 0.98,-1.548l0,-7.895c-2.112,1.054 -4.484,1.662 -7,1.662c-2.516,0 -4.888,-0.608 -7,-1.662z"/>
  <path id="svg_5" fill="#E0E0D1" d="m25,41.338l0,7.895c0,0.481 0.563,1.308 0.98,1.548l5.262,3.038c0.417,0.241 1.099,0.241 1.516,0l5.262,-3.038c0.417,-0.241 0.98,-1.067 0.98,-1.548l0,-7.895c-2.112,1.054 -4.484,1.662 -7,1.662c-2.516,0 -4.888,-0.608 -7,-1.662z"/>
  <circle opacity="0.2" id="svg_7" r="14.433" fill="#231F20" cy="34.567" cx="32"/>
  <circle id="svg_9" r="14.433" fill="#FFFFFF" cy="32" cx="32"/>
  <path id="svg_11" opacity="0.2" fill="#231F20" d="m33.5,15.5c0,0.828 -0.672,1.5 -1.5,1.5l0,0c-0.828,0 -1.5,-0.672 -1.5,-1.5l0,-2c0,-0.828 0.672,-1.5 1.5,-1.5l0,0c0.828,0 1.5,0.672 1.5,1.5l0,2z"/>
  <path id="svg_12" opacity="0.2" fill="#231F20" d="m50.5,35.5c-0.828,0 -1.5,-0.671 -1.5,-1.5l0,0c0,-0.828 0.672,-1.5 1.5,-1.5l2,0c0.828,0 1.5,0.672 1.5,1.5l0,0c0,0.829 -0.672,1.5 -1.5,1.5l-2,0z"/>
  <path id="svg_13" opacity="0.2" fill="#231F20" d="m13.5,32.5c0.828,0 1.5,0.672 1.5,1.5l0,0c0,0.829 -0.672,1.5 -1.5,1.5l-2,0c-0.828,0 -1.5,-0.671 -1.5,-1.5l0,0c0,-0.828 0.672,-1.5 1.5,-1.5l2,0z"/>
  <path id="svg_14" opacity="0.2" fill="#231F20" d="m24.049,17.228c0.414,0.717 0.168,1.635 -0.549,2.049l0,0c-0.717,0.414 -1.635,0.168 -2.049,-0.549l-1,-1.732c-0.414,-0.717 -0.168,-1.635 0.549,-2.049l0,0c0.717,-0.414 1.635,-0.168 2.049,0.549l1,1.732z"/>
  <path id="svg_15" opacity="0.2" fill="#231F20" d="m48.771,26.049c-0.717,0.414 -1.635,0.168 -2.049,-0.549l0,0c-0.414,-0.717 -0.168,-1.635 0.549,-2.049l1.732,-1c0.718,-0.414 1.635,-0.168 2.049,0.549l0,0c0.414,0.717 0.168,1.635 -0.549,2.049l-1.732,1z"/>
  <path id="svg_16" opacity="0.2" fill="#231F20" d="m15.228,41.951c0.718,-0.414 1.635,-0.168 2.049,0.549l0,0c0.414,0.718 0.168,1.635 -0.549,2.049l-1.732,1c-0.717,0.414 -1.635,0.168 -2.049,-0.549l0,0c-0.414,-0.717 -0.168,-1.635 0.549,-2.049l1.732,-1z"/>
  <path id="svg_17" opacity="0.2" fill="#231F20" d="m16.728,23.451c0.718,0.414 0.963,1.332 0.549,2.049l0,0c-0.414,0.717 -1.332,0.963 -2.049,0.549l-1.732,-1c-0.717,-0.414 -0.963,-1.332 -0.549,-2.049l0,0c0.414,-0.717 1.332,-0.963 2.049,-0.549l1.732,1z"/>
  <path id="svg_18" opacity="0.2" fill="#231F20" d="m47.271,44.549c-0.717,-0.414 -0.963,-1.332 -0.549,-2.049l0,0c0.414,-0.717 1.332,-0.963 2.049,-0.549l1.732,1c0.718,0.414 0.963,1.332 0.549,2.049l0,0c-0.414,0.718 -1.332,0.963 -2.049,0.549l-1.732,-1z"/>
  <path id="svg_19" opacity="0.2" fill="#231F20" d="m42.549,18.728c-0.414,0.717 -1.332,0.963 -2.049,0.549l0,0c-0.717,-0.414 -0.963,-1.332 -0.549,-2.049l1,-1.732c0.414,-0.717 1.332,-0.963 2.049,-0.549l0,0c0.717,0.414 0.963,1.332 0.549,2.049l-1,1.732z"/>
  <circle id="svg_21" r="14.433" fill="#FFFFFF" cy="32" cx="32"/>
  <path id="svg_23" fill="#E0E0D1" d="m33.5,13.5c0,0.828 -0.672,1.5 -1.5,1.5l0,0c-0.828,0 -1.5,-0.672 -1.5,-1.5l0,-2c0,-0.828 0.672,-1.5 1.5,-1.5l0,0c0.828,0 1.5,0.672 1.5,1.5l0,2z"/>
  <path id="svg_24" fill="#E0E0D1" d="m50.5,33.5c-0.828,0 -1.5,-0.672 -1.5,-1.5l0,0c0,-0.828 0.672,-1.5 1.5,-1.5l2,0c0.828,0 1.5,0.672 1.5,1.5l0,0c0,0.828 -0.672,1.5 -1.5,1.5l-2,0z"/>
  <path id="svg_25" fill="#E0E0D1" d="m13.5,30.5c0.828,0 1.5,0.672 1.5,1.5l0,0c0,0.828 -0.672,1.5 -1.5,1.5l-2,0c-0.828,0 -1.5,-0.672 -1.5,-1.5l0,0c0,-0.828 0.672,-1.5 1.5,-1.5l2,0z"/>
  <path id="svg_26" fill="#E0E0D1" d="m24.049,15.229c0.414,0.717 0.168,1.635 -0.549,2.049l0,0c-0.717,0.414 -1.635,0.168 -2.049,-0.549l-1,-1.732c-0.414,-0.717 -0.168,-1.635 0.549,-2.049l0,0c0.717,-0.414 1.635,-0.168 2.049,0.549l1,1.732z"/>
  <path id="svg_27" fill="#E0E0D1" d="m48.771,24.049c-0.717,0.414 -1.635,0.168 -2.049,-0.549l0,0c-0.414,-0.717 -0.168,-1.635 0.549,-2.049l1.732,-1c0.718,-0.414 1.635,-0.168 2.049,0.549l0,0c0.414,0.717 0.168,1.635 -0.549,2.049l-1.732,1z"/>
  <path id="svg_28" fill="#E0E0D1" d="m15.228,39.951c0.718,-0.414 1.635,-0.168 2.049,0.549l0,0c0.414,0.717 0.168,1.635 -0.549,2.049l-1.732,1c-0.717,0.414 -1.635,0.168 -2.049,-0.549l0,0c-0.414,-0.717 -0.168,-1.635 0.549,-2.049l1.732,-1z"/>
  <path id="svg_29" fill="#E0E0D1" d="m16.728,21.451c0.718,0.414 0.963,1.332 0.549,2.049l0,0c-0.414,0.717 -1.332,0.963 -2.049,0.549l-1.732,-1c-0.717,-0.414 -0.963,-1.332 -0.549,-2.049l0,0c0.414,-0.717 1.332,-0.963 2.049,-0.549l1.732,1z"/>
  <path id="svg_30" fill="#E0E0D1" d="m47.271,42.549c-0.717,-0.414 -0.963,-1.332 -0.549,-2.049l0,0c0.414,-0.717 1.332,-0.963 2.049,-0.549l1.732,1c0.718,0.414 0.963,1.332 0.549,2.049l0,0c-0.414,0.717 -1.332,0.963 -2.049,0.549l-1.732,-1z"/>
  <path id="svg_31" fill="#E0E0D1" d="m42.549,16.729c-0.414,0.717 -1.332,0.963 -2.049,0.549l0,0c-0.717,-0.414 -0.963,-1.332 -0.549,-2.049l1,-1.732c0.414,-0.717 1.332,-0.963 2.049,-0.549l0,0c0.717,0.414 0.963,1.332 0.549,2.049l-1,1.732z"/>
 </g>
</svg>