<svg width="91" height="91" xmlns="http://www.w3.org/2000/svg">

 <g>
  <title>background</title>
  <rect fill="none" id="canvas_background" height="402" width="582" y="-1" x="-1"/>
 </g>
 <g>
  <title>Layer 1</title>
  <path fill="#cf9244" id="svg_2" d="m8.1,53.5c18.4,-1 36.9,-2 55.4,-2.4c-8.6,6.9 -16,15.6 -14.7,25.3c0.4,2.6 4.3,3.4 5.9,1.6c4.4,-4.9 7.1,-10.6 12,-15.3c5.3,-5 11.3,-8.9 17.6,-12.5c1.7,-1 2.5,-2.4 2.6,-4c0.4,-1.9 -0.3,-4 -2.6,-5.5c-6,-4 -11.8,-7.7 -16.9,-12.9c-4.4,-4.7 -8.1,-10 -12,-15.1c-2,-2.7 -6.9,-1.3 -5.8,2.4c2.3,8.2 7.5,17 14.1,24.1c-18.5,-0.5 -37.2,0.4 -55.6,1.3c-8.4,0.4 -8.4,13.4 0,13z" class="st0"/>
 </g>
</svg>