<svg width="64" height="64" xmlns="http://www.w3.org/2000/svg">

 <g>
  <title>background</title>
  <rect fill="none" id="canvas_background" height="402" width="582" y="-1" x="-1"/>
 </g>
 <g>
  <title>Layer 1</title>
  <circle id="svg_2" r="32" fill="#cf9244" cy="32" cx="32"/>
  <circle opacity="0.2" id="svg_5" r="22" fill="#231F20" cy="34" cx="32"/>
  <path id="svg_8" fill="#C75C5C" d="m32,52c-11.028,0 -20,-8.972 -20,-20s8.972,-20 20,-20s20,8.972 20,20s-8.972,20 -20,20z"/>
  <path id="svg_10" fill="#FFFFFF" d="m32,14c9.925,0 18,8.075 18,18s-8.075,18 -18,18s-18,-8.075 -18,-18s8.075,-18 18,-18m0,-4c-12.15,0 -22,9.85 -22,22s9.85,22 22,22s22,-9.85 22,-22s-9.85,-22 -22,-22l0,0z"/>
  <path id="svg_12" fill="#FFFFFF" d="m32,22c5.514,0 10,4.486 10,10s-4.486,10 -10,10s-10,-4.486 -10,-10s4.486,-10 10,-10m0,-4c-7.732,0 -14,6.268 -14,14s6.268,14 14,14s14,-6.268 14,-14s-6.268,-14 -14,-14l0,0z"/>
  <circle id="svg_14" r="5" fill="#FFFFFF" cy="32" cx="32"/>
 </g>
</svg>