<svg width="64" height="64" xmlns="http://www.w3.org/2000/svg">

 <g>
  <title>background</title>
  <rect fill="none" id="canvas_background" height="402" width="582" y="-1" x="-1"/>
 </g>
 <g>
  <title>Layer 1</title>
  <circle id="svg_2" r="32" fill="#cf9244" cy="32" cx="32"/>
  <path opacity="0.2" id="svg_4" fill="#231F20" d="m32,16c9.925,0 18,8.075 18,18s-8.075,18 -18,18s-18,-8.075 -18,-18s8.075,-18 18,-18zm0,-4c-12.15,0 -22,9.85 -22,22s9.85,22 22,22s22,-9.85 22,-22s-9.85,-22 -22,-22l0,0z"/>
  <path id="svg_6" fill="#ffffff" d="m32,14c9.925,0 18,8.075 18,18s-8.075,18 -18,18s-18,-8.075 -18,-18s8.075,-18 18,-18m0,-4c-12.15,0 -22,9.85 -22,22s9.85,22 22,22s22,-9.85 22,-22s-9.85,-22 -22,-22l0,0z"/>
  <path opacity="0.2" id="svg_9" fill="#231F20" d="m40,44c-0.512,0 -1.023,-0.195 -1.414,-0.586l-8.586,-8.585l0,-8.829c0,-1.104 0.896,-2 2,-2s2,0.896 2,2l0,7.171l7.414,7.415c0.781,0.781 0.781,2.047 0,2.828c-0.391,0.391 -0.902,0.586 -1.414,0.586z"/>
  <path id="svg_11" fill="#ffffff" d="m40,42c-0.512,0 -1.023,-0.195 -1.414,-0.586l-8.586,-8.585l0,-8.829c0,-1.104 0.896,-2 2,-2s2,0.896 2,2l0,7.171l7.414,7.415c0.781,0.781 0.781,2.047 0,2.828c-0.391,0.391 -0.902,0.586 -1.414,0.586z"/>
 </g>
</svg>