<svg width="64" height="64" xmlns="http://www.w3.org/2000/svg">

 <g>
  <title>background</title>
  <rect fill="none" id="canvas_background" height="402" width="582" y="-1" x="-1"/>
 </g>
 <g>
  <title>Layer 1</title>
  <circle id="svg_2" r="32" fill="#cf9244" cy="32" cx="32"/>
  <path opacity="0.2" id="svg_5" fill="#231F20" d="m32,14c-9.389,0 -17,7.522 -17,16.8c0,14.7 17,25.2 17,25.2s17,-10.237 17,-25.2c0,-9.278 -7.611,-16.8 -17,-16.8zm0,24c-4.418,0 -8,-3.582 -8,-8s3.582,-8 8,-8s8,3.582 8,8s-3.582,8 -8,8z"/>
  <path id="svg_7" fill="#FFFFFF" d="m32,12c-9.389,0 -17,7.522 -17,16.8c0,14.7 17,25.2 17,25.2s17,-10.237 17,-25.2c0,-9.278 -7.611,-16.8 -17,-16.8zm0,24c-4.418,0 -8,-3.582 -8,-8s3.582,-8 8,-8s8,3.582 8,8s-3.582,8 -8,8z"/>
 </g>
</svg>